<svg id="Group_4472" data-name="Group 4472" xmlns="http://www.w3.org/2000/svg" xmlns:xlink="http://www.w3.org/1999/xlink" width="102.501" height="102.824" viewBox="0 0 102.501 102.824">
  <defs>
    <clipPath id="clip-path">
      <rect id="Rectangle_3500" data-name="Rectangle 3500" width="102.501" height="102.824" fill="#373737" stroke="#fff" stroke-width="1.2"/>
    </clipPath>
  </defs>
  <g id="Group_4470" data-name="Group 4470" transform="translate(0 0)" clip-path="url(#clip-path)">
    <path id="Path_8426" data-name="Path 8426" d="M47.915,95.831A47.915,47.915,0,1,1,95.831,47.915a1,1,0,0,1-2,0A45.912,45.912,0,1,0,47.915,93.828a1,1,0,0,1,0,2" transform="translate(0 0)" fill="#373737" stroke="#fff" stroke-width="1.2"/>
    <path id="Path_8427" data-name="Path 8427" d="M37.474,95.831c-14.923,0-27.065-21.495-27.065-47.915S22.552,0,37.474,0,64.54,21.495,64.54,47.915a1,1,0,0,1-2,0C62.537,22.6,51.294,2,37.474,2S12.412,22.6,12.412,47.915,23.655,93.828,37.474,93.828a1,1,0,0,1,0,2" transform="translate(10.441 0)" fill="#373737" stroke="#fff" stroke-width="1.2"/>
    <path id="Path_8428" data-name="Path 8428" d="M24.423,95.831a1,1,0,0,1-1-1V1a1,1,0,1,1,2,0V94.829a1,1,0,0,1-1,1" transform="translate(23.493 0)" fill="#373737" stroke="#fff" stroke-width="1.2"/>
    <path id="Path_8429" data-name="Path 8429" d="M42.657,18.522c-14.348,0-27.8-2.912-36.9-7.992A1,1,0,0,1,6.73,8.781c8.818,4.918,21.912,7.738,35.927,7.738,13.887,0,26.905-2.778,35.717-7.624a1,1,0,0,1,.967,1.755c-9.1,5-22.47,7.872-36.684,7.872" transform="translate(5.258 8.68)" fill="#373737" stroke="#fff" stroke-width="1.2"/>
    <path id="Path_8430" data-name="Path 8430" d="M6.35,44.012a1,1,0,0,1-.483-1.879c9.1-5,22.468-7.872,36.684-7.872a1,1,0,0,1,0,2c-13.889,0-26.907,2.78-35.719,7.624a1,1,0,0,1-.483.124" transform="translate(5.364 34.366)" fill="#373737" stroke="#fff" stroke-width="1.2"/>
    <path id="Path_8431" data-name="Path 8431" d="M94.829,25.424H1a1,1,0,1,1,0-2H94.829a1,1,0,1,1,0,2" transform="translate(0 23.493)" fill="#373737" stroke="#fff" stroke-width="1.2"/>
    <path id="Path_8432" data-name="Path 8432" d="M27.753,75.829a1,1,0,0,1-1-1V27.914a1,1,0,0,1,1-1H74.666a1,1,0,0,1,1,1A47.97,47.97,0,0,1,27.753,75.829m1-46.914v44.9a45.969,45.969,0,0,0,44.9-44.9Z" transform="translate(26.833 26.995)" fill="#373737" stroke="#fff" stroke-width="1.2"/>
    <path id="Path_8433" data-name="Path 8433" d="M27.824,34.365a1,1,0,0,1-.709-1.711l5.45-5.448a1,1,0,0,1,1.416,1.416l-5.448,5.45a1.006,1.006,0,0,1-.709.292" transform="translate(26.904 26.995)" fill="#373737" stroke="#fff" stroke-width="1.2"/>
    <path id="Path_8434" data-name="Path 8434" d="M27.8,40.56a1,1,0,0,1-.709-1.711L38.717,27.223a1,1,0,0,1,1.416,1.416L28.507,40.267a1.006,1.006,0,0,1-.709.292" transform="translate(26.878 27.012)" fill="#373737" stroke="#fff" stroke-width="1.2"/>
    <path id="Path_8435" data-name="Path 8435" d="M27.865,46.6a1,1,0,0,1-.709-1.711L44.841,27.206a1,1,0,1,1,1.416,1.416L28.574,46.3a1.006,1.006,0,0,1-.709.292" transform="translate(26.945 26.995)" fill="#373737" stroke="#fff" stroke-width="1.2"/>
    <path id="Path_8436" data-name="Path 8436" d="M27.886,52.589a1,1,0,0,1-.709-1.711l23.552-23.55a1,1,0,1,1,1.416,1.416L28.595,52.3a1.006,1.006,0,0,1-.709.292" transform="translate(26.966 27.119)" fill="#373737" stroke="#fff" stroke-width="1.2"/>
    <path id="Path_8437" data-name="Path 8437" d="M27.892,58.693a1,1,0,0,1-.709-1.711L56.8,27.371a1,1,0,0,1,1.416,1.416L28.6,58.4a1.006,1.006,0,0,1-.709.292" transform="translate(26.972 27.161)" fill="#373737" stroke="#fff" stroke-width="1.2"/>
    <path id="Path_8438" data-name="Path 8438" d="M27.846,65.076a1,1,0,0,1-.709-1.711L63.266,27.238a1,1,0,0,1,1.416,1.416L28.555,64.783a1.006,1.006,0,0,1-.709.292" transform="translate(26.926 27.027)" fill="#373737" stroke="#fff" stroke-width="1.2"/>
    <path id="Path_8439" data-name="Path 8439" d="M27.837,71.228a1,1,0,0,1-.709-1.711L69.382,27.263A1,1,0,0,1,70.8,28.679L28.546,70.936a1.006,1.006,0,0,1-.709.292" transform="translate(26.917 27.053)" fill="#373737" stroke="#fff" stroke-width="1.2"/>
    <path id="Path_8440" data-name="Path 8440" d="M28.8,74.449a1,1,0,0,1-.709-1.711l44.48-44.48a1,1,0,1,1,1.418,1.416L29.513,74.156a1.006,1.006,0,0,1-.709.292" transform="translate(27.887 28.051)" fill="#373737" stroke="#fff" stroke-width="1.2"/>
    <path id="Path_8441" data-name="Path 8441" d="M32.242,70.391a1,1,0,0,1-.709-1.711l37.107-37.1a1,1,0,0,1,1.416,1.416L32.951,70.1a1.006,1.006,0,0,1-.709.292" transform="translate(31.336 31.379)" fill="#373737" stroke="#fff" stroke-width="1.2"/>
    <path id="Path_8442" data-name="Path 8442" d="M36.553,63.492a1,1,0,0,1-.709-1.711l25.8-25.8A1,1,0,0,1,63.059,37.4l-25.8,25.8a1.006,1.006,0,0,1-.709.292" transform="translate(35.66 35.8)" fill="#373737" stroke="#fff" stroke-width="1.2"/>
  </g>
</svg>
